<mxfile host="app.diagrams.net" modified="2023-07-14T12:40:29.429Z" agent="Mozilla/5.0 (Macintosh; Intel Mac OS X 10_15_7) AppleWebKit/537.36 (KHTML, like Gecko) Chrome/114.0.0.0 Safari/537.36" etag="ELQCReaMqUGPa5XMRqtl" version="21.6.2" type="google">
  <diagram name="Page-1" id="BWu2Hhst6-oNpH2n0MpD">
    <mxGraphModel grid="0" page="1" gridSize="10" guides="1" tooltips="1" connect="1" arrows="1" fold="1" pageScale="1" pageWidth="850" pageHeight="1100" math="0" shadow="0">
      <root>
        <mxCell id="0" />
        <mxCell id="1" parent="0" />
        <mxCell id="WOeznydAtYUMgKoe-0x7-1" value="&lt;font style=&quot;font-size: 22px;&quot;&gt;Load attackgraph file&lt;/font&gt;" style="rounded=0;whiteSpace=wrap;html=1;fontSize=22;strokeWidth=2;" vertex="1" parent="1">
          <mxGeometry x="50" y="186.25" width="130" height="107.5" as="geometry" />
        </mxCell>
        <mxCell id="lzGBkVcJm4-aIamrhYz7-15" value="" style="edgeStyle=orthogonalEdgeStyle;rounded=0;orthogonalLoop=1;jettySize=auto;html=1;" edge="1" parent="1" source="WOeznydAtYUMgKoe-0x7-2" target="WOeznydAtYUMgKoe-0x7-4">
          <mxGeometry relative="1" as="geometry" />
        </mxCell>
        <mxCell id="WOeznydAtYUMgKoe-0x7-2" value="&lt;font style=&quot;font-size: 22px;&quot;&gt;Calculate parents&lt;br style=&quot;font-size: 22px;&quot;&gt;and&lt;br style=&quot;font-size: 22px;&quot;&gt;index&lt;/font&gt;" style="rounded=0;whiteSpace=wrap;html=1;fontSize=22;strokeWidth=2;" vertex="1" parent="1">
          <mxGeometry x="200" y="187.5" width="120" height="105" as="geometry" />
        </mxCell>
        <mxCell id="WOeznydAtYUMgKoe-0x7-23" style="edgeStyle=orthogonalEdgeStyle;rounded=0;orthogonalLoop=1;jettySize=auto;html=1;exitX=0.5;exitY=0;exitDx=0;exitDy=0;entryX=0;entryY=0.5;entryDx=0;entryDy=0;fontSize=22;strokeWidth=2;" edge="1" parent="1" source="WOeznydAtYUMgKoe-0x7-4" target="_JtFl7hBrsS1_BVeL7UD-24">
          <mxGeometry relative="1" as="geometry">
            <mxPoint x="550" y="90" as="targetPoint" />
          </mxGeometry>
        </mxCell>
        <mxCell id="WOeznydAtYUMgKoe-0x7-24" style="edgeStyle=orthogonalEdgeStyle;rounded=0;orthogonalLoop=1;jettySize=auto;html=1;exitX=1;exitY=0.5;exitDx=0;exitDy=0;entryX=0;entryY=0.5;entryDx=0;entryDy=0;fontSize=22;strokeWidth=2;" edge="1" parent="1" source="WOeznydAtYUMgKoe-0x7-4" target="WOeznydAtYUMgKoe-0x7-7">
          <mxGeometry relative="1" as="geometry" />
        </mxCell>
        <mxCell id="lzGBkVcJm4-aIamrhYz7-16" style="edgeStyle=orthogonalEdgeStyle;rounded=0;orthogonalLoop=1;jettySize=auto;html=1;exitX=1;exitY=1;exitDx=0;exitDy=0;entryX=0;entryY=0.5;entryDx=0;entryDy=0;strokeWidth=2;" edge="1" parent="1" source="WOeznydAtYUMgKoe-0x7-4" target="WOeznydAtYUMgKoe-0x7-19">
          <mxGeometry relative="1" as="geometry" />
        </mxCell>
        <mxCell id="lzGBkVcJm4-aIamrhYz7-17" style="edgeStyle=orthogonalEdgeStyle;rounded=0;orthogonalLoop=1;jettySize=auto;html=1;exitX=0.5;exitY=1;exitDx=0;exitDy=0;entryX=0;entryY=0.5;entryDx=0;entryDy=0;strokeWidth=2;" edge="1" parent="1" source="WOeznydAtYUMgKoe-0x7-4" target="lzGBkVcJm4-aIamrhYz7-14">
          <mxGeometry relative="1" as="geometry" />
        </mxCell>
        <mxCell id="WOeznydAtYUMgKoe-0x7-4" value="choice" style="rhombus;whiteSpace=wrap;html=1;fontSize=22;strokeWidth=2;fillColor=#fff2cc;strokeColor=#d6b656;" vertex="1" parent="1">
          <mxGeometry x="340" y="200" width="80" height="80" as="geometry" />
        </mxCell>
        <mxCell id="_JtFl7hBrsS1_BVeL7UD-13" style="edgeStyle=orthogonalEdgeStyle;rounded=0;orthogonalLoop=1;jettySize=auto;html=1;exitX=1;exitY=0.5;exitDx=0;exitDy=0;entryX=0;entryY=0.5;entryDx=0;entryDy=0;fontSize=22;strokeWidth=2;" edge="1" parent="1" source="WOeznydAtYUMgKoe-0x7-5" target="WOeznydAtYUMgKoe-0x7-13">
          <mxGeometry relative="1" as="geometry">
            <mxPoint x="740" y="150" as="targetPoint" />
          </mxGeometry>
        </mxCell>
        <mxCell id="WOeznydAtYUMgKoe-0x7-5" value="&lt;font style=&quot;font-size: 22px;&quot;&gt;Step by step attack&lt;/font&gt;" style="rounded=0;whiteSpace=wrap;html=1;fontSize=22;strokeWidth=2;" vertex="1" parent="1">
          <mxGeometry x="570" y="120" width="120" height="60" as="geometry" />
        </mxCell>
        <mxCell id="WOeznydAtYUMgKoe-0x7-50" style="edgeStyle=orthogonalEdgeStyle;rounded=0;orthogonalLoop=1;jettySize=auto;html=1;exitX=1;exitY=0.5;exitDx=0;exitDy=0;entryX=0;entryY=0.5;entryDx=0;entryDy=0;fontSize=22;strokeWidth=2;" edge="1" parent="1" source="WOeznydAtYUMgKoe-0x7-7" target="WOeznydAtYUMgKoe-0x7-8">
          <mxGeometry relative="1" as="geometry" />
        </mxCell>
        <mxCell id="WOeznydAtYUMgKoe-0x7-7" value="Attack simulation" style="rounded=0;whiteSpace=wrap;html=1;fontSize=22;strokeWidth=2;" vertex="1" parent="1">
          <mxGeometry x="460" y="360" width="100" height="60" as="geometry" />
        </mxCell>
        <mxCell id="WOeznydAtYUMgKoe-0x7-27" style="edgeStyle=orthogonalEdgeStyle;rounded=0;orthogonalLoop=1;jettySize=auto;html=1;exitX=1;exitY=0.5;exitDx=0;exitDy=0;entryX=0;entryY=0.5;entryDx=0;entryDy=0;fontSize=22;strokeWidth=2;" edge="1" parent="1" source="WOeznydAtYUMgKoe-0x7-51" target="WOeznydAtYUMgKoe-0x7-9">
          <mxGeometry relative="1" as="geometry" />
        </mxCell>
        <mxCell id="WOeznydAtYUMgKoe-0x7-32" style="edgeStyle=orthogonalEdgeStyle;rounded=0;orthogonalLoop=1;jettySize=auto;html=1;exitX=1;exitY=1;exitDx=0;exitDy=0;entryX=0;entryY=0.5;entryDx=0;entryDy=0;fontSize=22;strokeWidth=2;" edge="1" parent="1" source="WOeznydAtYUMgKoe-0x7-8" target="WOeznydAtYUMgKoe-0x7-17">
          <mxGeometry relative="1" as="geometry">
            <Array as="points">
              <mxPoint x="640" y="490" />
            </Array>
          </mxGeometry>
        </mxCell>
        <mxCell id="lzGBkVcJm4-aIamrhYz7-12" style="edgeStyle=orthogonalEdgeStyle;rounded=0;orthogonalLoop=1;jettySize=auto;html=1;exitX=0.5;exitY=1;exitDx=0;exitDy=0;entryX=0;entryY=0.5;entryDx=0;entryDy=0;dashed=1;fontSize=22;strokeWidth=2;" edge="1" parent="1" source="WOeznydAtYUMgKoe-0x7-8" target="WOeznydAtYUMgKoe-0x7-10">
          <mxGeometry relative="1" as="geometry">
            <Array as="points">
              <mxPoint x="620" y="770" />
            </Array>
          </mxGeometry>
        </mxCell>
        <mxCell id="lzGBkVcJm4-aIamrhYz7-13" style="edgeStyle=orthogonalEdgeStyle;rounded=0;orthogonalLoop=1;jettySize=auto;html=1;exitX=1;exitY=0.5;exitDx=0;exitDy=0;entryX=0;entryY=0.5;entryDx=0;entryDy=0;strokeWidth=2;" edge="1" parent="1" source="WOeznydAtYUMgKoe-0x7-8" target="WOeznydAtYUMgKoe-0x7-53">
          <mxGeometry relative="1" as="geometry" />
        </mxCell>
        <mxCell id="WOeznydAtYUMgKoe-0x7-8" value="choice" style="rhombus;whiteSpace=wrap;html=1;fontSize=22;strokeWidth=2;fillColor=#fff2cc;strokeColor=#d6b656;" vertex="1" parent="1">
          <mxGeometry x="580" y="350" width="80" height="80" as="geometry" />
        </mxCell>
        <mxCell id="WOeznydAtYUMgKoe-0x7-64" style="edgeStyle=orthogonalEdgeStyle;rounded=0;orthogonalLoop=1;jettySize=auto;html=1;exitX=1;exitY=0.5;exitDx=0;exitDy=0;entryX=0;entryY=0.5;entryDx=0;entryDy=0;fontSize=22;strokeWidth=2;" edge="1" parent="1" source="WOeznydAtYUMgKoe-0x7-9" target="WOeznydAtYUMgKoe-0x7-63">
          <mxGeometry relative="1" as="geometry" />
        </mxCell>
        <mxCell id="WOeznydAtYUMgKoe-0x7-9" value="Dijkstra" style="rounded=0;whiteSpace=wrap;html=1;fontSize=22;strokeWidth=2;" vertex="1" parent="1">
          <mxGeometry x="800" y="210" width="120" height="60" as="geometry" />
        </mxCell>
        <mxCell id="_JtFl7hBrsS1_BVeL7UD-11" style="edgeStyle=orthogonalEdgeStyle;rounded=0;orthogonalLoop=1;jettySize=auto;html=1;exitX=1;exitY=0.5;exitDx=0;exitDy=0;dashed=1;entryX=0.5;entryY=1;entryDx=0;entryDy=0;fontSize=22;strokeWidth=2;" edge="1" parent="1" source="WOeznydAtYUMgKoe-0x7-10" target="WOeznydAtYUMgKoe-0x7-20">
          <mxGeometry relative="1" as="geometry">
            <mxPoint x="1380" y="930" as="targetPoint" />
          </mxGeometry>
        </mxCell>
        <mxCell id="WOeznydAtYUMgKoe-0x7-10" value="AO*" style="rounded=0;whiteSpace=wrap;html=1;fontSize=22;strokeWidth=2;" vertex="1" parent="1">
          <mxGeometry x="770" y="740" width="120" height="60" as="geometry" />
        </mxCell>
        <mxCell id="lzGBkVcJm4-aIamrhYz7-2" style="edgeStyle=orthogonalEdgeStyle;rounded=0;orthogonalLoop=1;jettySize=auto;html=1;exitX=1;exitY=0.5;exitDx=0;exitDy=0;entryX=0;entryY=0.5;entryDx=0;entryDy=0;fontSize=22;strokeWidth=2;" edge="1" parent="1" source="WOeznydAtYUMgKoe-0x7-11" target="_JtFl7hBrsS1_BVeL7UD-14">
          <mxGeometry relative="1" as="geometry" />
        </mxCell>
        <mxCell id="WOeznydAtYUMgKoe-0x7-11" value="Random path&lt;br style=&quot;font-size: 22px;&quot;&gt;end condition target" style="rounded=0;whiteSpace=wrap;html=1;fontSize=22;strokeWidth=2;" vertex="1" parent="1">
          <mxGeometry x="1080" y="270" width="150" height="80" as="geometry" />
        </mxCell>
        <mxCell id="lzGBkVcJm4-aIamrhYz7-5" style="edgeStyle=orthogonalEdgeStyle;rounded=0;orthogonalLoop=1;jettySize=auto;html=1;exitX=1;exitY=0.5;exitDx=0;exitDy=0;entryX=0;entryY=0.5;entryDx=0;entryDy=0;fontSize=22;strokeWidth=2;" edge="1" parent="1" source="WOeznydAtYUMgKoe-0x7-12" target="_JtFl7hBrsS1_BVeL7UD-14">
          <mxGeometry relative="1" as="geometry" />
        </mxCell>
        <mxCell id="WOeznydAtYUMgKoe-0x7-12" value="Random path&lt;br style=&quot;font-size: 22px;&quot;&gt;end condition budget" style="rounded=0;whiteSpace=wrap;html=1;fontSize=22;strokeWidth=2;" vertex="1" parent="1">
          <mxGeometry x="1080" y="350" width="150" height="80" as="geometry" />
        </mxCell>
        <mxCell id="WOeznydAtYUMgKoe-0x7-41" style="edgeStyle=orthogonalEdgeStyle;rounded=0;orthogonalLoop=1;jettySize=auto;html=1;exitX=0.5;exitY=0;exitDx=0;exitDy=0;entryX=0.5;entryY=1;entryDx=0;entryDy=0;fontSize=22;strokeWidth=2;" edge="1" parent="1" target="WOeznydAtYUMgKoe-0x7-14" source="WOeznydAtYUMgKoe-0x7-13">
          <mxGeometry relative="1" as="geometry">
            <mxPoint x="780" y="110" as="sourcePoint" />
            <mxPoint x="780" y="90" as="targetPoint" />
          </mxGeometry>
        </mxCell>
        <mxCell id="WOeznydAtYUMgKoe-0x7-42" style="edgeStyle=orthogonalEdgeStyle;rounded=0;orthogonalLoop=1;jettySize=auto;html=1;exitX=1;exitY=0.5;exitDx=0;exitDy=0;entryX=0;entryY=0.5;entryDx=0;entryDy=0;fontSize=22;strokeWidth=2;" edge="1" parent="1" target="WOeznydAtYUMgKoe-0x7-15" source="WOeznydAtYUMgKoe-0x7-13">
          <mxGeometry relative="1" as="geometry">
            <mxPoint x="820" y="150" as="sourcePoint" />
          </mxGeometry>
        </mxCell>
        <mxCell id="WOeznydAtYUMgKoe-0x7-13" value="&lt;font style=&quot;font-size: 22px;&quot;&gt;choice&lt;/font&gt;" style="rhombus;whiteSpace=wrap;html=1;fontSize=22;strokeWidth=2;fillColor=#fff2cc;strokeColor=#d6b656;" vertex="1" parent="1">
          <mxGeometry x="720" y="110" width="80" height="80" as="geometry" />
        </mxCell>
        <mxCell id="WOeznydAtYUMgKoe-0x7-43" style="edgeStyle=orthogonalEdgeStyle;rounded=0;orthogonalLoop=1;jettySize=auto;html=1;exitX=1;exitY=0.5;exitDx=0;exitDy=0;entryX=0.5;entryY=0;entryDx=0;entryDy=0;fontSize=22;strokeWidth=2;" edge="1" parent="1" source="WOeznydAtYUMgKoe-0x7-14" target="_JtFl7hBrsS1_BVeL7UD-14">
          <mxGeometry relative="1" as="geometry" />
        </mxCell>
        <mxCell id="WOeznydAtYUMgKoe-0x7-14" value="&lt;font style=&quot;font-size: 22px;&quot;&gt;Action&lt;/font&gt;" style="rounded=0;whiteSpace=wrap;html=1;fontSize=22;strokeWidth=2;" vertex="1" parent="1">
          <mxGeometry x="700" y="30" width="120" height="60" as="geometry" />
        </mxCell>
        <mxCell id="WOeznydAtYUMgKoe-0x7-15" value="Horizon" style="rounded=0;whiteSpace=wrap;html=1;fontSize=22;strokeWidth=2;" vertex="1" parent="1">
          <mxGeometry x="850" y="120" width="120" height="60" as="geometry" />
        </mxCell>
        <mxCell id="lzGBkVcJm4-aIamrhYz7-3" style="edgeStyle=orthogonalEdgeStyle;rounded=0;orthogonalLoop=1;jettySize=auto;html=1;exitX=1;exitY=0.5;exitDx=0;exitDy=0;entryX=0;entryY=0.5;entryDx=0;entryDy=0;fontSize=22;strokeWidth=2;" edge="1" parent="1" source="WOeznydAtYUMgKoe-0x7-16" target="_JtFl7hBrsS1_BVeL7UD-14">
          <mxGeometry relative="1" as="geometry">
            <Array as="points">
              <mxPoint x="1260" y="460" />
              <mxPoint x="1260" y="390" />
            </Array>
          </mxGeometry>
        </mxCell>
        <mxCell id="WOeznydAtYUMgKoe-0x7-16" value="Random path&lt;br style=&quot;font-size: 22px;&quot;&gt;both" style="rounded=0;whiteSpace=wrap;html=1;fontSize=22;strokeWidth=2;" vertex="1" parent="1">
          <mxGeometry x="1080" y="430" width="150" height="60" as="geometry" />
        </mxCell>
        <mxCell id="lzGBkVcJm4-aIamrhYz7-6" style="edgeStyle=orthogonalEdgeStyle;rounded=0;orthogonalLoop=1;jettySize=auto;html=1;exitX=1;exitY=0.5;exitDx=0;exitDy=0;entryX=0;entryY=0.5;entryDx=0;entryDy=0;fontSize=22;strokeWidth=2;" edge="1" parent="1" source="WOeznydAtYUMgKoe-0x7-17" target="_JtFl7hBrsS1_BVeL7UD-14">
          <mxGeometry relative="1" as="geometry">
            <Array as="points">
              <mxPoint x="900" y="510" />
              <mxPoint x="1260" y="510" />
              <mxPoint x="1260" y="390" />
            </Array>
          </mxGeometry>
        </mxCell>
        <mxCell id="WOeznydAtYUMgKoe-0x7-17" value="BFS&lt;br style=&quot;font-size: 22px;&quot;&gt;end condition budget" style="rounded=0;whiteSpace=wrap;html=1;fontSize=22;strokeWidth=2;" vertex="1" parent="1">
          <mxGeometry x="680" y="450" width="220" height="80" as="geometry" />
        </mxCell>
        <mxCell id="_JtFl7hBrsS1_BVeL7UD-17" style="edgeStyle=orthogonalEdgeStyle;rounded=0;orthogonalLoop=1;jettySize=auto;html=1;exitX=1;exitY=0.5;exitDx=0;exitDy=0;entryX=0;entryY=0.5;entryDx=0;entryDy=0;fontSize=22;strokeWidth=2;" edge="1" parent="1" source="WOeznydAtYUMgKoe-0x7-19" target="_JtFl7hBrsS1_BVeL7UD-16">
          <mxGeometry relative="1" as="geometry" />
        </mxCell>
        <mxCell id="WOeznydAtYUMgKoe-0x7-19" value="Reachability analysis&lt;br style=&quot;font-size: 22px;&quot;&gt;with pruning of unreachable nodes" style="rounded=0;whiteSpace=wrap;html=1;fontSize=22;strokeWidth=2;" vertex="1" parent="1">
          <mxGeometry x="420" y="540" width="320" height="80" as="geometry" />
        </mxCell>
        <mxCell id="lzGBkVcJm4-aIamrhYz7-9" style="edgeStyle=orthogonalEdgeStyle;rounded=0;orthogonalLoop=1;jettySize=auto;html=1;exitX=1;exitY=0.5;exitDx=0;exitDy=0;entryX=0;entryY=0.5;entryDx=0;entryDy=0;fontSize=22;strokeWidth=2;" edge="1" parent="1" source="WOeznydAtYUMgKoe-0x7-20" target="WOeznydAtYUMgKoe-0x7-1">
          <mxGeometry relative="1" as="geometry">
            <Array as="points">
              <mxPoint x="1460" y="490" />
              <mxPoint x="1460" y="830" />
              <mxPoint x="30" y="830" />
              <mxPoint x="30" y="240" />
            </Array>
          </mxGeometry>
        </mxCell>
        <mxCell id="WOeznydAtYUMgKoe-0x7-20" value="&lt;font style=&quot;font-size: 22px;&quot;&gt;Neo4j&lt;/font&gt;" style="ellipse;whiteSpace=wrap;html=1;aspect=fixed;fontSize=22;strokeWidth=2;" vertex="1" parent="1">
          <mxGeometry x="1360" y="450" width="80" height="80" as="geometry" />
        </mxCell>
        <mxCell id="WOeznydAtYUMgKoe-0x7-21" value="" style="endArrow=classic;html=1;rounded=0;exitX=1;exitY=0.5;exitDx=0;exitDy=0;entryX=0;entryY=0.5;entryDx=0;entryDy=0;fontSize=22;strokeWidth=2;" edge="1" parent="1" source="WOeznydAtYUMgKoe-0x7-1" target="WOeznydAtYUMgKoe-0x7-2">
          <mxGeometry width="50" height="50" relative="1" as="geometry">
            <mxPoint x="470" y="390" as="sourcePoint" />
            <mxPoint x="520" y="340" as="targetPoint" />
          </mxGeometry>
        </mxCell>
        <mxCell id="WOeznydAtYUMgKoe-0x7-22" value="" style="endArrow=classic;html=1;rounded=0;exitX=1;exitY=0.5;exitDx=0;exitDy=0;entryX=0;entryY=0.5;entryDx=0;entryDy=0;fontSize=22;strokeWidth=2;" edge="1" parent="1" source="WOeznydAtYUMgKoe-0x7-2" target="WOeznydAtYUMgKoe-0x7-4">
          <mxGeometry width="50" height="50" relative="1" as="geometry">
            <mxPoint x="190" y="300" as="sourcePoint" />
            <mxPoint x="230" y="300" as="targetPoint" />
          </mxGeometry>
        </mxCell>
        <mxCell id="WOeznydAtYUMgKoe-0x7-34" style="edgeStyle=orthogonalEdgeStyle;rounded=0;orthogonalLoop=1;jettySize=auto;html=1;exitX=1;exitY=0.5;exitDx=0;exitDy=0;entryX=0;entryY=0.5;entryDx=0;entryDy=0;fontSize=22;strokeWidth=2;" edge="1" parent="1" source="WOeznydAtYUMgKoe-0x7-28" target="WOeznydAtYUMgKoe-0x7-33">
          <mxGeometry relative="1" as="geometry" />
        </mxCell>
        <mxCell id="WOeznydAtYUMgKoe-0x7-28" value="Random path" style="rounded=0;whiteSpace=wrap;html=1;fontSize=22;strokeWidth=2;" vertex="1" parent="1">
          <mxGeometry x="840" y="360" width="120" height="60" as="geometry" />
        </mxCell>
        <mxCell id="WOeznydAtYUMgKoe-0x7-35" style="edgeStyle=orthogonalEdgeStyle;rounded=0;orthogonalLoop=1;jettySize=auto;html=1;exitX=0.5;exitY=0;exitDx=0;exitDy=0;entryX=0;entryY=0.5;entryDx=0;entryDy=0;fontSize=22;strokeWidth=2;" edge="1" parent="1" source="WOeznydAtYUMgKoe-0x7-33" target="WOeznydAtYUMgKoe-0x7-11">
          <mxGeometry relative="1" as="geometry" />
        </mxCell>
        <mxCell id="WOeznydAtYUMgKoe-0x7-36" style="edgeStyle=orthogonalEdgeStyle;rounded=0;orthogonalLoop=1;jettySize=auto;html=1;exitX=1;exitY=0.5;exitDx=0;exitDy=0;entryX=0;entryY=0.5;entryDx=0;entryDy=0;fontSize=22;strokeWidth=2;" edge="1" parent="1" source="WOeznydAtYUMgKoe-0x7-33" target="WOeznydAtYUMgKoe-0x7-12">
          <mxGeometry relative="1" as="geometry" />
        </mxCell>
        <mxCell id="WOeznydAtYUMgKoe-0x7-37" style="edgeStyle=orthogonalEdgeStyle;rounded=0;orthogonalLoop=1;jettySize=auto;html=1;exitX=0.5;exitY=1;exitDx=0;exitDy=0;entryX=0;entryY=0.5;entryDx=0;entryDy=0;fontSize=22;strokeWidth=2;" edge="1" parent="1" source="WOeznydAtYUMgKoe-0x7-33" target="WOeznydAtYUMgKoe-0x7-16">
          <mxGeometry relative="1" as="geometry" />
        </mxCell>
        <mxCell id="WOeznydAtYUMgKoe-0x7-33" value="choice" style="rhombus;whiteSpace=wrap;html=1;fontSize=22;strokeWidth=2;fillColor=#fff2cc;strokeColor=#d6b656;" vertex="1" parent="1">
          <mxGeometry x="980" y="350" width="80" height="80" as="geometry" />
        </mxCell>
        <mxCell id="WOeznydAtYUMgKoe-0x7-52" value="" style="edgeStyle=orthogonalEdgeStyle;rounded=0;orthogonalLoop=1;jettySize=auto;html=1;exitX=0.5;exitY=0;exitDx=0;exitDy=0;entryX=0;entryY=0.5;entryDx=0;entryDy=0;fontSize=22;strokeWidth=2;" edge="1" parent="1" source="WOeznydAtYUMgKoe-0x7-8" target="WOeznydAtYUMgKoe-0x7-51">
          <mxGeometry relative="1" as="geometry">
            <mxPoint x="620" y="330" as="sourcePoint" />
            <mxPoint x="890" y="230" as="targetPoint" />
          </mxGeometry>
        </mxCell>
        <mxCell id="WOeznydAtYUMgKoe-0x7-51" value="reachability analysis&lt;br style=&quot;font-size: 22px;&quot;&gt;MANUALLY" style="rounded=0;whiteSpace=wrap;html=1;fontSize=22;strokeWidth=2;" vertex="1" parent="1">
          <mxGeometry x="640" y="195" width="140" height="90" as="geometry" />
        </mxCell>
        <mxCell id="WOeznydAtYUMgKoe-0x7-55" style="edgeStyle=orthogonalEdgeStyle;rounded=0;orthogonalLoop=1;jettySize=auto;html=1;exitX=1;exitY=0.5;exitDx=0;exitDy=0;entryX=0;entryY=0.5;entryDx=0;entryDy=0;fontSize=22;strokeWidth=2;" edge="1" parent="1" source="WOeznydAtYUMgKoe-0x7-53" target="WOeznydAtYUMgKoe-0x7-28">
          <mxGeometry relative="1" as="geometry" />
        </mxCell>
        <mxCell id="WOeznydAtYUMgKoe-0x7-53" value="Reachability analysis&lt;br style=&quot;font-size: 22px;&quot;&gt;MANUALLY" style="rounded=0;whiteSpace=wrap;html=1;fontSize=22;strokeWidth=2;" vertex="1" parent="1">
          <mxGeometry x="690" y="345" width="120" height="90" as="geometry" />
        </mxCell>
        <mxCell id="lzGBkVcJm4-aIamrhYz7-8" style="edgeStyle=orthogonalEdgeStyle;rounded=0;orthogonalLoop=1;jettySize=auto;html=1;exitX=1;exitY=0.5;exitDx=0;exitDy=0;entryX=0;entryY=0.5;entryDx=0;entryDy=0;fontSize=22;strokeWidth=2;" edge="1" parent="1" source="WOeznydAtYUMgKoe-0x7-63" target="_JtFl7hBrsS1_BVeL7UD-14">
          <mxGeometry relative="1" as="geometry">
            <Array as="points">
              <mxPoint x="1260" y="240" />
              <mxPoint x="1260" y="390" />
            </Array>
          </mxGeometry>
        </mxCell>
        <mxCell id="WOeznydAtYUMgKoe-0x7-63" value="Reconstruct path" style="rounded=0;whiteSpace=wrap;html=1;fontSize=22;strokeWidth=2;" vertex="1" parent="1">
          <mxGeometry x="950" y="210" width="120" height="60" as="geometry" />
        </mxCell>
        <mxCell id="_JtFl7hBrsS1_BVeL7UD-14" value="&lt;font style=&quot;font-size: 22px;&quot;&gt;Upload to Neo4j&lt;/font&gt;" style="rounded=0;whiteSpace=wrap;html=1;fontSize=22;strokeWidth=2;" vertex="1" parent="1">
          <mxGeometry x="1290" y="360" width="120" height="60" as="geometry" />
        </mxCell>
        <mxCell id="_JtFl7hBrsS1_BVeL7UD-16" value="Upload to Neo4j&lt;br style=&quot;font-size: 22px;&quot;&gt;(mgg ingestor)" style="rounded=0;whiteSpace=wrap;html=1;fontSize=22;strokeWidth=2;" vertex="1" parent="1">
          <mxGeometry x="1060" y="620" width="170" height="60" as="geometry" />
        </mxCell>
        <mxCell id="_JtFl7hBrsS1_BVeL7UD-21" value="" style="endArrow=classic;html=1;rounded=0;entryX=0;entryY=0;entryDx=0;entryDy=0;exitX=0.5;exitY=1;exitDx=0;exitDy=0;fontSize=22;strokeWidth=2;" edge="1" parent="1" source="_JtFl7hBrsS1_BVeL7UD-14" target="WOeznydAtYUMgKoe-0x7-20">
          <mxGeometry width="50" height="50" relative="1" as="geometry">
            <mxPoint x="1050" y="420" as="sourcePoint" />
            <mxPoint x="1100" y="370" as="targetPoint" />
          </mxGeometry>
        </mxCell>
        <mxCell id="_JtFl7hBrsS1_BVeL7UD-22" value="" style="endArrow=classic;html=1;rounded=0;entryX=0;entryY=1;entryDx=0;entryDy=0;exitX=1;exitY=0.5;exitDx=0;exitDy=0;fontSize=22;strokeWidth=2;" edge="1" parent="1" source="_JtFl7hBrsS1_BVeL7UD-16" target="WOeznydAtYUMgKoe-0x7-20">
          <mxGeometry width="50" height="50" relative="1" as="geometry">
            <mxPoint x="1500" y="410" as="sourcePoint" />
            <mxPoint x="1562" y="491" as="targetPoint" />
          </mxGeometry>
        </mxCell>
        <mxCell id="_JtFl7hBrsS1_BVeL7UD-25" style="edgeStyle=orthogonalEdgeStyle;rounded=0;orthogonalLoop=1;jettySize=auto;html=1;exitX=1;exitY=0.5;exitDx=0;exitDy=0;entryX=0;entryY=0.5;entryDx=0;entryDy=0;fontSize=22;strokeWidth=2;" edge="1" parent="1" source="_JtFl7hBrsS1_BVeL7UD-24" target="WOeznydAtYUMgKoe-0x7-5">
          <mxGeometry relative="1" as="geometry" />
        </mxCell>
        <mxCell id="_JtFl7hBrsS1_BVeL7UD-24" value="&lt;font style=&quot;font-size: 22px;&quot;&gt;Reachability analysis&lt;br style=&quot;font-size: 22px;&quot;&gt;MANUALLY&lt;/font&gt;" style="rounded=0;whiteSpace=wrap;html=1;fontSize=22;strokeWidth=2;" vertex="1" parent="1">
          <mxGeometry x="410" y="105" width="130" height="90" as="geometry" />
        </mxCell>
        <mxCell id="lzGBkVcJm4-aIamrhYz7-11" value="" style="endArrow=classic;html=1;rounded=0;entryX=0;entryY=0.5;entryDx=0;entryDy=0;fontSize=22;strokeWidth=2;" edge="1" parent="1" target="WOeznydAtYUMgKoe-0x7-1">
          <mxGeometry width="50" height="50" relative="1" as="geometry">
            <mxPoint x="10" y="240" as="sourcePoint" />
            <mxPoint x="180" y="270" as="targetPoint" />
          </mxGeometry>
        </mxCell>
        <mxCell id="lzGBkVcJm4-aIamrhYz7-18" style="edgeStyle=orthogonalEdgeStyle;rounded=0;orthogonalLoop=1;jettySize=auto;html=1;exitX=1;exitY=0.5;exitDx=0;exitDy=0;entryX=0;entryY=0.5;entryDx=0;entryDy=0;strokeWidth=2;" edge="1" parent="1" source="lzGBkVcJm4-aIamrhYz7-14" target="_JtFl7hBrsS1_BVeL7UD-16">
          <mxGeometry relative="1" as="geometry">
            <Array as="points">
              <mxPoint x="900" y="715" />
              <mxPoint x="900" y="650" />
            </Array>
          </mxGeometry>
        </mxCell>
        <mxCell id="lzGBkVcJm4-aIamrhYz7-14" value="&lt;font style=&quot;font-size: 22px;&quot;&gt;Reachability analysis&lt;br&gt;&lt;/font&gt;" style="rounded=0;whiteSpace=wrap;html=1;fontSize=22;strokeWidth=2;" vertex="1" parent="1">
          <mxGeometry x="420" y="670" width="130" height="90" as="geometry" />
        </mxCell>
      </root>
    </mxGraphModel>
  </diagram>
</mxfile>
